<svg xmlns="http://www.w3.org/2000/svg" viewBox="0 0 1200 900" width="1200" height="900" role="img">
  <rect width="1200" height="900" fill="#F3F6FB"/>
  <circle cx="600" cy="470" r="330" fill="#E4EBF5"/>
  <rect x="0" y="836" width="1200" height="64" fill="#E4EBF5"/>
  <g transform="translate(190.00000000000006 40.00000000000006) scale(8.2)" fill="none" stroke="#1F2C3D" stroke-width="2.4" stroke-linecap="round" stroke-linejoin="round" opacity="0.92">
    <path d="M22 58V48a28 28 0 0 1 56 0v10"/>
    <rect x="14" y="54" width="16" height="26" rx="7"/>
    <rect x="70" y="54" width="16" height="26" rx="7"/>
    <path d="M70 70h10a6 6 0 0 0 6-6"/>
    <path d="M30 74h10a6 6 0 0 1 6 6v4"/>
  </g>
  <rect x="72" y="72" width="56" height="4" rx="2" fill="#174385" opacity="0.6"/>
</svg>
